<mxfile host="app.diagrams.net" agent="Mozilla/5.0 (Macintosh; Intel Mac OS X 10_15_7) AppleWebKit/537.36 (KHTML, like Gecko) Chrome/129.0.0.0 Safari/537.36" version="24.7.17">
  <diagram name="第 1 页" id="5d9hJcXOXHH_tsXbayRm">
    <mxGraphModel dx="888" dy="551" grid="1" gridSize="10" guides="1" tooltips="1" connect="1" arrows="1" fold="1" page="1" pageScale="1" pageWidth="827" pageHeight="1169" math="0" shadow="0">
      <root>
        <mxCell id="0" />
        <mxCell id="1" parent="0" />
        <mxCell id="Q5Q5VS02lIQwUWvoVA3Z-11" value="" style="endArrow=none;html=1;rounded=0;" edge="1" parent="1">
          <mxGeometry width="50" height="50" relative="1" as="geometry">
            <mxPoint x="160" y="120" as="sourcePoint" />
            <mxPoint x="920" y="120" as="targetPoint" />
          </mxGeometry>
        </mxCell>
        <mxCell id="Q5Q5VS02lIQwUWvoVA3Z-12" value="" style="endArrow=none;html=1;rounded=0;" edge="1" parent="1">
          <mxGeometry width="50" height="50" relative="1" as="geometry">
            <mxPoint x="360" y="832" as="sourcePoint" />
            <mxPoint x="360" y="80" as="targetPoint" />
          </mxGeometry>
        </mxCell>
        <mxCell id="Q5Q5VS02lIQwUWvoVA3Z-13" value="" style="endArrow=none;html=1;rounded=0;" edge="1" parent="1">
          <mxGeometry width="50" height="50" relative="1" as="geometry">
            <mxPoint x="680" y="832" as="sourcePoint" />
            <mxPoint x="680" y="80" as="targetPoint" />
          </mxGeometry>
        </mxCell>
        <mxCell id="Q5Q5VS02lIQwUWvoVA3Z-14" value="管理员" style="text;html=1;align=center;verticalAlign=middle;whiteSpace=wrap;rounded=0;" vertex="1" parent="1">
          <mxGeometry x="230" y="80" width="60" height="30" as="geometry" />
        </mxCell>
        <mxCell id="Q5Q5VS02lIQwUWvoVA3Z-15" value="系统" style="text;html=1;align=center;verticalAlign=middle;whiteSpace=wrap;rounded=0;" vertex="1" parent="1">
          <mxGeometry x="500" y="80" width="60" height="30" as="geometry" />
        </mxCell>
        <mxCell id="Q5Q5VS02lIQwUWvoVA3Z-16" value="用户（原始金额1000）" style="text;html=1;align=center;verticalAlign=middle;whiteSpace=wrap;rounded=0;" vertex="1" parent="1">
          <mxGeometry x="730" y="80" width="160" height="30" as="geometry" />
        </mxCell>
        <mxCell id="Q5Q5VS02lIQwUWvoVA3Z-17" value="" style="shape=flexArrow;endArrow=classic;html=1;rounded=0;" edge="1" parent="1">
          <mxGeometry width="50" height="50" relative="1" as="geometry">
            <mxPoint x="300" y="159.5" as="sourcePoint" />
            <mxPoint x="460" y="159.5" as="targetPoint" />
          </mxGeometry>
        </mxCell>
        <mxCell id="Q5Q5VS02lIQwUWvoVA3Z-18" value="发布质押产品" style="edgeLabel;html=1;align=center;verticalAlign=middle;resizable=0;points=[];" vertex="1" connectable="0" parent="Q5Q5VS02lIQwUWvoVA3Z-17">
          <mxGeometry x="-0.45" y="1" relative="1" as="geometry">
            <mxPoint as="offset" />
          </mxGeometry>
        </mxCell>
        <mxCell id="Q5Q5VS02lIQwUWvoVA3Z-24" style="edgeStyle=orthogonalEdgeStyle;rounded=0;orthogonalLoop=1;jettySize=auto;html=1;exitX=0.5;exitY=1;exitDx=0;exitDy=0;entryX=0;entryY=0.5;entryDx=0;entryDy=0;" edge="1" parent="1" source="Q5Q5VS02lIQwUWvoVA3Z-19" target="Q5Q5VS02lIQwUWvoVA3Z-23">
          <mxGeometry relative="1" as="geometry" />
        </mxCell>
        <mxCell id="Q5Q5VS02lIQwUWvoVA3Z-25" value="+1" style="edgeLabel;html=1;align=center;verticalAlign=middle;resizable=0;points=[];" vertex="1" connectable="0" parent="Q5Q5VS02lIQwUWvoVA3Z-24">
          <mxGeometry x="-0.0667" y="-1" relative="1" as="geometry">
            <mxPoint as="offset" />
          </mxGeometry>
        </mxCell>
        <mxCell id="Q5Q5VS02lIQwUWvoVA3Z-37" style="edgeStyle=orthogonalEdgeStyle;rounded=0;orthogonalLoop=1;jettySize=auto;html=1;exitX=0.5;exitY=1;exitDx=0;exitDy=0;entryX=0;entryY=0.5;entryDx=0;entryDy=0;" edge="1" parent="1" source="Q5Q5VS02lIQwUWvoVA3Z-19" target="Q5Q5VS02lIQwUWvoVA3Z-29">
          <mxGeometry relative="1" as="geometry" />
        </mxCell>
        <mxCell id="Q5Q5VS02lIQwUWvoVA3Z-38" style="edgeStyle=orthogonalEdgeStyle;rounded=0;orthogonalLoop=1;jettySize=auto;html=1;exitX=0.5;exitY=1;exitDx=0;exitDy=0;entryX=0;entryY=0.5;entryDx=0;entryDy=0;" edge="1" parent="1" source="Q5Q5VS02lIQwUWvoVA3Z-19" target="Q5Q5VS02lIQwUWvoVA3Z-32">
          <mxGeometry relative="1" as="geometry" />
        </mxCell>
        <mxCell id="Q5Q5VS02lIQwUWvoVA3Z-43" style="edgeStyle=orthogonalEdgeStyle;rounded=0;orthogonalLoop=1;jettySize=auto;html=1;exitX=0.5;exitY=1;exitDx=0;exitDy=0;entryX=0;entryY=0.5;entryDx=0;entryDy=0;" edge="1" parent="1" source="Q5Q5VS02lIQwUWvoVA3Z-19" target="Q5Q5VS02lIQwUWvoVA3Z-40">
          <mxGeometry relative="1" as="geometry" />
        </mxCell>
        <mxCell id="Q5Q5VS02lIQwUWvoVA3Z-19" value="质押产品&lt;div&gt;周期&lt;/div&gt;&lt;div&gt;收益率&lt;/div&gt;" style="rounded=0;whiteSpace=wrap;html=1;" vertex="1" parent="1">
          <mxGeometry x="460" y="130" width="120" height="60" as="geometry" />
        </mxCell>
        <mxCell id="Q5Q5VS02lIQwUWvoVA3Z-20" value="" style="shape=flexArrow;endArrow=classic;html=1;rounded=0;" edge="1" parent="1">
          <mxGeometry width="50" height="50" relative="1" as="geometry">
            <mxPoint x="760" y="160" as="sourcePoint" />
            <mxPoint x="580" y="160" as="targetPoint" />
          </mxGeometry>
        </mxCell>
        <mxCell id="Q5Q5VS02lIQwUWvoVA3Z-21" value="购买1000币，3天，日0.1%产品" style="edgeLabel;html=1;align=center;verticalAlign=middle;resizable=0;points=[];" vertex="1" connectable="0" parent="Q5Q5VS02lIQwUWvoVA3Z-20">
          <mxGeometry x="-0.45" y="1" relative="1" as="geometry">
            <mxPoint as="offset" />
          </mxGeometry>
        </mxCell>
        <mxCell id="Q5Q5VS02lIQwUWvoVA3Z-23" value="钱包：1" style="rounded=0;whiteSpace=wrap;html=1;" vertex="1" parent="1">
          <mxGeometry x="790" y="210" width="70" height="40" as="geometry" />
        </mxCell>
        <mxCell id="Q5Q5VS02lIQwUWvoVA3Z-26" value="钱包：0" style="rounded=0;whiteSpace=wrap;html=1;" vertex="1" parent="1">
          <mxGeometry x="790" y="140" width="70" height="40" as="geometry" />
        </mxCell>
        <mxCell id="Q5Q5VS02lIQwUWvoVA3Z-27" value="第1天" style="text;html=1;align=center;verticalAlign=middle;whiteSpace=wrap;rounded=0;" vertex="1" parent="1">
          <mxGeometry x="420" y="210" width="60" height="30" as="geometry" />
        </mxCell>
        <mxCell id="Q5Q5VS02lIQwUWvoVA3Z-28" value="+1" style="edgeLabel;html=1;align=center;verticalAlign=middle;resizable=0;points=[];" vertex="1" connectable="0" parent="1">
          <mxGeometry x="625" y="301" as="geometry" />
        </mxCell>
        <mxCell id="Q5Q5VS02lIQwUWvoVA3Z-29" value="钱包：2" style="rounded=0;whiteSpace=wrap;html=1;" vertex="1" parent="1">
          <mxGeometry x="790" y="280" width="70" height="40" as="geometry" />
        </mxCell>
        <mxCell id="Q5Q5VS02lIQwUWvoVA3Z-30" value="第2天" style="text;html=1;align=center;verticalAlign=middle;whiteSpace=wrap;rounded=0;" vertex="1" parent="1">
          <mxGeometry x="420" y="280" width="60" height="30" as="geometry" />
        </mxCell>
        <mxCell id="Q5Q5VS02lIQwUWvoVA3Z-31" value="+1" style="edgeLabel;html=1;align=center;verticalAlign=middle;resizable=0;points=[];" vertex="1" connectable="0" parent="1">
          <mxGeometry x="625" y="371" as="geometry" />
        </mxCell>
        <mxCell id="Q5Q5VS02lIQwUWvoVA3Z-32" value="钱包：3" style="rounded=0;whiteSpace=wrap;html=1;" vertex="1" parent="1">
          <mxGeometry x="790" y="350" width="70" height="40" as="geometry" />
        </mxCell>
        <mxCell id="Q5Q5VS02lIQwUWvoVA3Z-33" value="第3天" style="text;html=1;align=center;verticalAlign=middle;whiteSpace=wrap;rounded=0;" vertex="1" parent="1">
          <mxGeometry x="420" y="350" width="60" height="30" as="geometry" />
        </mxCell>
        <mxCell id="Q5Q5VS02lIQwUWvoVA3Z-39" value="+1000本金" style="edgeLabel;html=1;align=center;verticalAlign=middle;resizable=0;points=[];" vertex="1" connectable="0" parent="1">
          <mxGeometry x="625" y="441" as="geometry" />
        </mxCell>
        <mxCell id="Q5Q5VS02lIQwUWvoVA3Z-40" value="钱包：1003" style="rounded=0;whiteSpace=wrap;html=1;" vertex="1" parent="1">
          <mxGeometry x="790" y="420" width="70" height="40" as="geometry" />
        </mxCell>
        <mxCell id="Q5Q5VS02lIQwUWvoVA3Z-41" value="第4天" style="text;html=1;align=center;verticalAlign=middle;whiteSpace=wrap;rounded=0;" vertex="1" parent="1">
          <mxGeometry x="420" y="420" width="60" height="30" as="geometry" />
        </mxCell>
      </root>
    </mxGraphModel>
  </diagram>
</mxfile>
